{
  "source": "C:\\Users\\Peter\\Desktop\\stuff\\MIUN\\quantitative_research\\video_compression\\videos\\BVI-HD\\BVI-HD_CDVL_videos\\ORIG\\Hamster_1920x1080_60fps.mp4",
  "output": "C:\\Users\\Peter\\Desktop\\stuff\\MIUN\\quantitative_research\\video_compression\\compressed_videos\\BVI-HD\\hevc\\3\\Hamster_1920x1080_60fps_hevc.mp4",
  "codec": "hevc",
  "ok": "Input #0, mov,mp4,m4a,3gp,3g2,mj2, from 'C:\\Users\\Peter\\Desktop\\stuff\\MIUN\\quantitative_research\\video_compression\\videos\\BVI-HD\\BVI-HD_CDVL_videos\\ORIG\\Hamster_1920x1080_60fps.mp4':\n  Metadata:\n    major_brand     : isom\n    minor_version   : 512\n    compatible_brands: isomiso2avc1mp41\n    encoder         : Lavf54.28.101\n  Duration: 00:00:05.00, start: 0.000000, bitrate: 208485 kb/s\n  Stream #0:0[0x1](und): Video: h264 (High 4:4:4 Predictive) (avc1 / 0x31637661), yuv420p(progressive), 1920x1080, 208481 kb/s, 60 fps, 60 tbr, 60 tbn (default)\n    Metadata:\n      handler_name    : VideoHandler\n      vendor_id       : [0][0][0][0]\n[out#0/mp4 @ 000002e35b16ae00] Codec AVOption b:a (set bitrate (in bits/s)) has not been used for any stream. The most likely reason is either wrong type (e.g. a video option with no video streams) or that it is a private option of some decoder which was not actually used for any stream.\nStream mapping:\n  Stream #0:0 -> #0:0 (h264 (native) -> hevc (libx265))\nPress [q] to stop, [?] for help\n[libx265 @ 000002e35b7807c0] Unknown option: \"aq-mode.\nx265 [info]: HEVC encoder version 4.1+190-8f11c33ac\nx265 [info]: build info [Windows][GCC 15.1.0][64 bit] 10bit\nx265 [info]: using cpu capabilities: MMX2 SSE2Fast LZCNT SSSE3 SSE4.2 AVX FMA3 BMI2 AVX2\nx265 [info]: Main 10 profile, Level-4.1 (Main tier)\nx265 [info]: Thread pool created using 12 threads\nx265 [info]: Slices                              : 1\nx265 [info]: frame threads / pool features       : 3 / wpp(17 rows)\nx265 [info]: Coding QT: max CU size, min CU size : 64 / 8\nx265 [info]: Residual QT: max TU size, max depth : 32 / 1 inter / 1 intra\nx265 [info]: ME / range / subpel / merge         : star / 57 / 3 / 3\nx265 [info]: Keyframe min / max / scenecut / bias  : 25 / 250 / 40 / 5.00 \nx265 [info]: Lookahead / bframes / badapt        : 25 / 4 / 2\nx265 [info]: b-pyramid / weightp / weightb       : 1 / 1 / 0\nx265 [info]: References / ref-limit  cu / depth  : 4 / on / on\nx265 [info]: AQ: mode / str / qg-size / cu-tree  : 2 / 1.0 / 32 / 1\nx265 [info]: Rate Control / qCompress            : ABR-3000 kbps / 0.60\nx265 [info]: VBV/HRD buffer / max-rate / init    : 3000 / 3000 / 0.750\nx265 [info]: tools: rect limit-modes rd=4 psy-rd=2.00 rdoq=2 psy-rdoq=1.00\nx265 [info]: tools: rskip mode=1 signhide tmvp strong-intra-smoothing lslices=4\nx265 [info]: tools: deblock sao dhdr10-info\nOutput #0, mp4, to 'C:\\Users\\Peter\\Desktop\\stuff\\MIUN\\quantitative_research\\video_compression\\compressed_videos\\BVI-HD\\hevc\\3\\Hamster_1920x1080_60fps_hevc.mp4':\n  Metadata:\n    major_brand     : isom\n    minor_version   : 512\n    compatible_brands: isomiso2avc1mp41\n    encoder         : Lavf62.3.100\n  Stream #0:0(und): Video: hevc (hev1 / 0x31766568), yuv420p10le(tv, progressive), 1920x1080, q=2-31, 3000 kb/s, 60 fps, 15360 tbn (default)\n    Metadata:\n      encoder         : Lavc62.11.100 libx265\n      handler_name    : VideoHandler\n      vendor_id       : [0][0][0][0]\n    Side data:\n      cpb: bitrate max/min/avg: 3000000/0/3000000 buffer size: 3000000 vbv_delay: N/A\nframe=    0 fps=0.0 q=0.0 size=       0KiB time=N/A bitrate=N/A speed=N/A elapsed=0:00:01.04    \nframe=    0 fps=0.0 q=0.0 size=       0KiB time=N/A bitrate=N/A speed=N/A elapsed=0:00:01.55    \nframe=    0 fps=0.0 q=0.0 size=       0KiB time=N/A bitrate=N/A speed=N/A elapsed=0:00:02.07    \nframe=    0 fps=0.0 q=0.0 size=       0KiB time=N/A bitrate=N/A speed=N/A elapsed=0:00:02.59    \nframe=    0 fps=0.0 q=0.0 size=       0KiB time=N/A bitrate=N/A speed=N/A elapsed=0:00:03.10    \nframe=    0 fps=0.0 q=0.0 size=       0KiB time=N/A bitrate=N/A speed=N/A elapsed=0:00:03.63    \nframe=    0 fps=0.0 q=0.0 size=       0KiB time=N/A bitrate=N/A speed=N/A elapsed=0:00:04.14    \nframe=    0 fps=0.0 q=0.0 size=       0KiB time=N/A bitrate=N/A speed=N/A elapsed=0:00:04.66    \nframe=    0 fps=0.0 q=0.0 size=       0KiB time=N/A bitrate=N/A speed=N/A elapsed=0:00:05.19    \nframe=    0 fps=0.0 q=0.0 size=       0KiB time=N/A bitrate=N/A speed=N/A elapsed=0:00:05.71    \nframe=    1 fps=0.2 q=35.3 size=       0KiB time=-00:00:00.01 bitrate=N/A speed=N/A elapsed=0:00:06.25    \nframe=    3 fps=0.4 q=40.0 size=       0KiB time=00:00:00.01 bitrate=  21.1kbits/s speed=0.00246x elapsed=0:00:06.77    \nframe=    3 fps=0.4 q=40.0 size=       0KiB time=00:00:00.01 bitrate=  21.1kbits/s speed=0.00228x elapsed=0:00:07.30    \nframe=    3 fps=0.4 q=40.0 size=       0KiB time=00:00:00.01 bitrate=  21.1kbits/s speed=0.00212x elapsed=0:00:07.85    \nframe=    4 fps=0.5 q=39.6 size=       0KiB time=00:00:00.03 bitrate=  10.6kbits/s speed=0.00398x elapsed=0:00:08.36    \nframe=    4 fps=0.4 q=39.6 size=       0KiB time=00:00:00.03 bitrate=  10.6kbits/s speed=0.00375x elapsed=0:00:08.89    \nframe=    5 fps=0.5 q=38.0 size=       0KiB time=00:00:00.05 bitrate=   7.0kbits/s speed=0.00531x elapsed=0:00:09.41    \nframe=    6 fps=0.6 q=32.9 size=       0KiB time=00:00:00.06 bitrate=   5.3kbits/s speed=0.00672x elapsed=0:00:09.91    \nframe=    7 fps=0.7 q=36.1 size=       0KiB time=00:00:00.08 bitrate=   4.2kbits/s speed=0.00798x elapsed=0:00:10.44    \nframe=    7 fps=0.6 q=36.1 size=       0KiB time=00:00:00.08 bitrate=   4.2kbits/s speed=0.00758x elapsed=0:00:10.99    \nframe=    8 fps=0.7 q=35.9 size=       0KiB time=00:00:00.10 bitrate=   3.5kbits/s speed=0.00868x elapsed=0:00:11.51    \nframe=    8 fps=0.7 q=35.9 size=       0KiB time=00:00:00.10 bitrate=   3.5kbits/s speed=0.00831x elapsed=0:00:12.03    \nframe=    9 fps=0.7 q=36.7 size=       0KiB time=00:00:00.11 bitrate=   3.0kbits/s speed=0.00929x elapsed=0:00:12.55    \nframe=    9 fps=0.7 q=36.7 size=       0KiB time=00:00:00.11 bitrate=   3.0kbits/s speed=0.0089x elapsed=0:00:13.10    \nframe=    9 fps=0.7 q=36.7 size=       0KiB time=00:00:00.11 bitrate=   3.0kbits/s speed=0.00856x elapsed=0:00:13.62    \nframe=    9 fps=0.6 q=36.7 size=       0KiB time=00:00:00.11 bitrate=   3.0kbits/s speed=0.00824x elapsed=0:00:14.15    \nframe=    9 fps=0.6 q=36.7 size=       0KiB time=00:00:00.11 bitrate=   3.0kbits/s speed=0.00795x elapsed=0:00:14.67    \nframe=    9 fps=0.6 q=36.7 size=       0KiB time=00:00:00.11 bitrate=   3.0kbits/s speed=0.00767x elapsed=0:00:15.20    \nframe=   10 fps=0.6 q=37.7 size=       0KiB time=00:00:00.13 bitrate=   2.6kbits/s speed=0.00846x elapsed=0:00:15.75    \nframe=   10 fps=0.6 q=37.7 size=       0KiB time=00:00:00.13 bitrate=   2.6kbits/s speed=0.00818x elapsed=0:00:16.29    \nframe=   10 fps=0.6 q=37.7 size=       0KiB time=00:00:00.13 bitrate=   2.6kbits/s speed=0.00791x elapsed=0:00:16.84    \nframe=   10 fps=0.6 q=37.7 size=       0KiB time=00:00:00.13 bitrate=   2.6kbits/s speed=0.00767x elapsed=0:00:17.39    \nframe=   11 fps=0.6 q=31.2 size=       0KiB time=00:00:00.15 bitrate=   2.3kbits/s speed=0.00838x elapsed=0:00:17.90    \nframe=   11 fps=0.6 q=31.2 size=       0KiB time=00:00:00.15 bitrate=   2.3kbits/s speed=0.00813x elapsed=0:00:18.44    \nframe=   12 fps=0.6 q=35.8 size=       0KiB time=00:00:00.15 bitrate=   2.3kbits/s speed=0.0079x elapsed=0:00:18.99    \nframe=   12 fps=0.6 q=35.8 size=       0KiB time=00:00:00.16 bitrate=   2.1kbits/s speed=0.00852x elapsed=0:00:19.55    \nframe=   13 fps=0.6 q=37.9 size=       0KiB time=00:00:00.18 bitrate=   1.9kbits/s speed=0.00913x elapsed=0:00:20.09    \nframe=   13 fps=0.6 q=37.9 size=       0KiB time=00:00:00.18 bitrate=   1.9kbits/s speed=0.00889x elapsed=0:00:20.63    \nframe=   13 fps=0.6 q=37.9 size=       0KiB time=00:00:00.18 bitrate=   1.9kbits/s speed=0.00867x elapsed=0:00:21.14    \nframe=   13 fps=0.6 q=37.9 size=       0KiB time=00:00:00.18 bitrate=   1.9kbits/s speed=0.00845x elapsed=0:00:21.68    \nframe=   14 fps=0.6 q=37.4 size=       0KiB time=00:00:00.20 bitrate=   1.8kbits/s speed=0.00901x elapsed=0:00:22.20    \nframe=   14 fps=0.6 q=37.4 size=       0KiB time=00:00:00.20 bitrate=   1.8kbits/s speed=0.0088x elapsed=0:00:22.73    \nframe=   15 fps=0.6 q=31.4 size=       0KiB time=00:00:00.21 bitrate=   1.6kbits/s speed=0.00932x elapsed=0:00:23.24    \nframe=   15 fps=0.6 q=31.4 size=       0KiB time=00:00:00.21 bitrate=   1.6kbits/s speed=0.00909x elapsed=0:00:23.84    \nframe=   15 fps=0.6 q=31.4 size=       0KiB time=00:00:00.21 bitrate=   1.6kbits/s speed=0.00888x elapsed=0:00:24.40    \nframe=   16 fps=0.6 q=32.6 size=       0KiB time=00:00:00.23 bitrate=   1.5kbits/s speed=0.00936x elapsed=0:00:24.93    \nframe=   16 fps=0.6 q=32.6 size=       0KiB time=00:00:00.23 bitrate=   1.5kbits/s speed=0.00915x elapsed=0:00:25.50    \nframe=   17 fps=0.7 q=36.5 size=       0KiB time=00:00:00.25 bitrate=   1.4kbits/s speed=0.0096x elapsed=0:00:26.05    \nframe=   17 fps=0.6 q=36.5 size=       0KiB time=00:00:00.25 bitrate=   1.4kbits/s speed=0.00941x elapsed=0:00:26.55    \nframe=   18 fps=0.7 q=36.1 size=       0KiB time=00:00:00.26 bitrate=   1.3kbits/s speed=0.00985x elapsed=0:00:27.07    \nframe=   18 fps=0.7 q=36.1 size=       0KiB time=00:00:00.26 bitrate=   1.3kbits/s speed=0.00966x elapsed=0:00:27.61    \nframe=   18 fps=0.6 q=36.1 size=       0KiB time=00:00:00.26 bitrate=   1.3kbits/s speed=0.00947x elapsed=0:00:28.16    \nframe=   19 fps=0.7 q=36.6 size=       0KiB time=00:00:00.28 bitrate=   1.2kbits/s speed=0.00987x elapsed=0:00:28.71    \nframe=   19 fps=0.6 q=36.6 size=       0KiB time=00:00:00.28 bitrate=   1.2kbits/s speed=0.00968x elapsed=0:00:29.26    \nframe=   20 fps=0.7 q=31.0 size=       0KiB time=00:00:00.30 bitrate=   1.2kbits/s speed=0.0101x elapsed=0:00:29.79    \nframe=   20 fps=0.7 q=31.0 size=       0KiB time=00:00:00.30 bitrate=   1.2kbits/s speed=0.00989x elapsed=0:00:30.32    \nframe=   20 fps=0.6 q=31.0 size=       0KiB time=00:00:00.30 bitrate=   1.2kbits/s speed=0.00972x elapsed=0:00:30.87    \nframe=   20 fps=0.6 q=31.0 size=       0KiB time=00:00:00.30 bitrate=   1.2kbits/s speed=0.00955x elapsed=0:00:31.42    \nframe=   21 fps=0.7 q=34.3 size=       0KiB time=00:00:00.31 bitrate=   1.1kbits/s speed=0.0099x elapsed=0:00:31.97    \nframe=   21 fps=0.6 q=34.3 size=       0KiB time=00:00:00.31 bitrate=   1.1kbits/s speed=0.00974x elapsed=0:00:32.51    \nframe=   21 fps=0.6 q=34.3 size=       0KiB time=00:00:00.31 bitrate=   1.1kbits/s speed=0.00959x elapsed=0:00:33.03    \nframe=   21 fps=0.6 q=34.3 size=       0KiB time=00:00:00.31 bitrate=   1.1kbits/s speed=0.00943x elapsed=0:00:33.57    \nframe=   22 fps=0.6 q=36.0 size=       0KiB time=00:00:00.33 bitrate=   1.1kbits/s speed=0.00978x elapsed=0:00:34.08    \nframe=   22 fps=0.6 q=36.0 size=       0KiB time=00:00:00.33 bitrate=   1.1kbits/s speed=0.00963x elapsed=0:00:34.62    \nframe=   22 fps=0.6 q=36.0 size=       0KiB time=00:00:00.33 bitrate=   1.1kbits/s speed=0.00948x elapsed=0:00:35.15    \nframe=   23 fps=0.6 q=36.0 size=       0KiB time=00:00:00.35 bitrate=   1.0kbits/s speed=0.00981x elapsed=0:00:35.67    \nframe=   23 fps=0.6 q=36.0 size=       0KiB time=00:00:00.35 bitrate=   1.0kbits/s speed=0.00967x elapsed=0:00:36.20    \nframe=   24 fps=0.7 q=31.0 size=       0KiB time=00:00:00.36 bitrate=   1.0kbits/s speed=0.00999x elapsed=0:00:36.71    \nframe=   24 fps=0.6 q=31.0 size=       0KiB time=00:00:00.36 bitrate=   1.0kbits/s speed=0.00985x elapsed=0:00:37.22    \nframe=   25 fps=0.7 q=33.6 size=       0KiB time=00:00:00.38 bitrate=   0.9kbits/s speed=0.0102x elapsed=0:00:37.74    \nframe=   25 fps=0.7 q=33.6 size=       0KiB time=00:00:00.38 bitrate=   0.9kbits/s speed=0.01x elapsed=0:00:38.26    \nframe=   25 fps=0.6 q=33.6 size=       0KiB time=00:00:00.38 bitrate=   0.9kbits/s speed=0.00988x elapsed=0:00:38.79    \nframe=   25 fps=0.6 q=33.6 size=       0KiB time=00:00:00.38 bitrate=   0.9kbits/s speed=0.00974x elapsed=0:00:39.36    \nframe=   25 fps=0.6 q=33.6 size=       0KiB time=00:00:00.38 bitrate=   0.9kbits/s speed=0.00961x elapsed=0:00:39.89    \nframe=   26 fps=0.6 q=35.2 size=       0KiB time=00:00:00.40 bitrate=   0.9kbits/s speed=0.0099x elapsed=0:00:40.41    \nframe=   26 fps=0.6 q=35.2 size=       0KiB time=00:00:00.40 bitrate=   0.9kbits/s speed=0.00976x elapsed=0:00:40.97    \nframe=   26 fps=0.6 q=35.2 size=       0KiB time=00:00:00.40 bitrate=   0.9kbits/s speed=0.00963x elapsed=0:00:41.52    \nframe=   26 fps=0.6 q=35.2 size=       0KiB time=00:00:00.40 bitrate=   0.9kbits/s speed=0.0095x elapsed=0:00:42.08    \nframe=   27 fps=0.6 q=35.3 size=       0KiB time=00:00:00.41 bitrate=   0.8kbits/s speed=0.00977x elapsed=0:00:42.64    \nframe=   28 fps=0.6 q=30.5 size=       0KiB time=00:00:00.43 bitrate=   0.8kbits/s speed=0.01x elapsed=0:00:43.18    \nframe=   28 fps=0.6 q=30.5 size=       0KiB time=00:00:00.43 bitrate=   0.8kbits/s speed=0.00991x elapsed=0:00:43.73    \nframe=   28 fps=0.6 q=30.5 size=       0KiB time=00:00:00.43 bitrate=   0.8kbits/s speed=0.00979x elapsed=0:00:44.25    \nframe=   29 fps=0.6 q=33.7 size=       0KiB time=00:00:00.45 bitrate=   0.8kbits/s speed=0.0101x elapsed=0:00:44.76    \nframe=   29 fps=0.6 q=33.7 size=       0KiB time=00:00:00.45 bitrate=   0.8kbits/s speed=0.00993x elapsed=0:00:45.30    \nframe=   29 fps=0.6 q=33.7 size=       0KiB time=00:00:00.45 bitrate=   0.8kbits/s speed=0.00981x elapsed=0:00:45.86    \nframe=   29 fps=0.6 q=33.7 size=       0KiB time=00:00:00.45 bitrate=   0.8kbits/s speed=0.0097x elapsed=0:00:46.39    \nframe=   29 fps=0.6 q=33.7 size=       0KiB time=00:00:00.45 bitrate=   0.8kbits/s speed=0.00959x elapsed=0:00:46.93    \nframe=   30 fps=0.6 q=35.7 size=       0KiB time=00:00:00.46 bitrate=   0.8kbits/s speed=0.00984x elapsed=0:00:47.44    \nframe=   30 fps=0.6 q=35.7 size=       0KiB time=00:00:00.46 bitrate=   0.8kbits/s speed=0.00973x elapsed=0:00:47.98    \nframe=   30 fps=0.6 q=35.7 size=       0KiB time=00:00:00.46 bitrate=   0.8kbits/s speed=0.00962x elapsed=0:00:48.51    \nframe=   30 fps=0.6 q=35.7 size=       0KiB time=00:00:00.46 bitrate=   0.8kbits/s speed=0.00951x elapsed=0:00:49.05    \nframe=   31 fps=0.6 q=35.8 size=       0KiB time=00:00:00.48 bitrate=   0.7kbits/s speed=0.00975x elapsed=0:00:49.59    \nframe=   31 fps=0.6 q=35.8 size=       0KiB time=00:00:00.48 bitrate=   0.7kbits/s speed=0.00963x elapsed=0:00:50.17    \nframe=   31 fps=0.6 q=35.8 size=       0KiB time=00:00:00.48 bitrate=   0.7kbits/s speed=0.00953x elapsed=0:00:50.72    \nframe=   31 fps=0.6 q=35.8 size=       0KiB time=00:00:00.48 bitrate=   0.7kbits/s speed=0.00943x elapsed=0:00:51.26    \nframe=   31 fps=0.6 q=35.8 size=       0KiB time=00:00:00.48 bitrate=   0.7kbits/s speed=0.00932x elapsed=0:00:51.85    \nframe=   31 fps=0.6 q=35.8 size=       0KiB time=00:00:00.48 bitrate=   0.7kbits/s speed=0.00921x elapsed=0:00:52.49    \nframe=   32 fps=0.6 q=30.5 size=       0KiB time=00:00:00.48 bitrate=   0.7kbits/s speed=0.0091x elapsed=0:00:53.11    \nframe=   32 fps=0.6 q=30.5 size=       0KiB time=00:00:00.50 bitrate=   0.7kbits/s speed=0.00931x elapsed=0:00:53.70    \nframe=   32 fps=0.6 q=30.5 size=       0KiB time=00:00:00.50 bitrate=   0.7kbits/s speed=0.00921x elapsed=0:00:54.28    \nframe=   33 fps=0.6 q=33.9 size=       0KiB time=00:00:00.51 bitrate=   0.7kbits/s speed=0.00942x elapsed=0:00:54.84    \nframe=   33 fps=0.6 q=33.9 size=       0KiB time=00:00:00.51 bitrate=   0.7kbits/s speed=0.00933x elapsed=0:00:55.37    \nframe=   33 fps=0.6 q=33.9 size=       0KiB time=00:00:00.51 bitrate=   0.7kbits/s speed=0.00924x elapsed=0:00:55.89    \nframe=   34 fps=0.6 q=35.8 size=       0KiB time=00:00:00.51 bitrate=   0.7kbits/s speed=0.00916x elapsed=0:00:56.43    \nframe=   34 fps=0.6 q=35.8 size=       0KiB time=00:00:00.53 bitrate=   0.7kbits/s speed=0.00936x elapsed=0:00:57.00    \nframe=   34 fps=0.6 q=35.8 size=       0KiB time=00:00:00.53 bitrate=   0.7kbits/s speed=0.00927x elapsed=0:00:57.55    \nframe=   34 fps=0.6 q=35.8 size=       0KiB time=00:00:00.53 bitrate=   0.7kbits/s speed=0.00918x elapsed=0:00:58.06    \nframe=   35 fps=0.6 q=36.2 size=       0KiB time=00:00:00.55 bitrate=   0.6kbits/s speed=0.00939x elapsed=0:00:58.57    \nframe=   35 fps=0.6 q=36.2 size=       0KiB time=00:00:00.55 bitrate=   0.6kbits/s speed=0.00931x elapsed=0:00:59.10    \nframe=   36 fps=0.6 q=30.4 size=       0KiB time=00:00:00.56 bitrate=   0.6kbits/s speed=0.0095x elapsed=0:00:59.63    \nframe=   37 fps=0.6 q=34.0 size=       0KiB time=00:00:00.58 bitrate=   0.6kbits/s speed=0.0097x elapsed=0:01:00.15    \nframe=   37 fps=0.6 q=34.0 size=       0KiB time=00:00:00.58 bitrate=   0.6kbits/s speed=0.00961x elapsed=0:01:00.67    \nframe=   38 fps=0.6 q=36.1 size=       0KiB time=00:00:00.60 bitrate=   0.6kbits/s speed=0.00981x elapsed=0:01:01.18    \nframe=   38 fps=0.6 q=36.1 size=       0KiB time=00:00:00.60 bitrate=   0.6kbits/s speed=0.00972x elapsed=0:01:01.71    \nframe=   39 fps=0.6 q=35.9 size=       0KiB time=00:00:00.61 bitrate=   0.6kbits/s speed=0.00991x elapsed=0:01:02.25    \nframe=   39 fps=0.6 q=35.9 size=       0KiB time=00:00:00.61 bitrate=   0.6kbits/s speed=0.00982x elapsed=0:01:02.77    \nframe=   40 fps=0.6 q=30.2 size=       0KiB time=00:00:00.63 bitrate=   0.6kbits/s speed=0.01x elapsed=0:01:03.29    \nframe=   41 fps=0.6 q=33.6 size=       0KiB time=00:00:00.65 bitrate=   0.5kbits/s speed=0.0102x elapsed=0:01:03.80    \nframe=   41 fps=0.6 q=33.6 size=       0KiB time=00:00:00.65 bitrate=   0.5kbits/s speed=0.0101x elapsed=0:01:04.32    \nframe=   41 fps=0.6 q=33.6 size=       0KiB time=00:00:00.65 bitrate=   0.5kbits/s speed=0.01x elapsed=0:01:04.83    \nframe=   42 fps=0.6 q=35.8 size=       0KiB time=00:00:00.66 bitrate=   0.5kbits/s speed=0.0102x elapsed=0:01:05.35    \nframe=   42 fps=0.6 q=35.8 size=       0KiB time=00:00:00.66 bitrate=   0.5kbits/s speed=0.0101x elapsed=0:01:05.89    \nframe=   43 fps=0.6 q=35.3 size=       0KiB time=00:00:00.68 bitrate=   0.5kbits/s speed=0.0103x elapsed=0:01:06.39    \nframe=   43 fps=0.6 q=35.3 size=       0KiB time=00:00:00.68 bitrate=   0.5kbits/s speed=0.0102x elapsed=0:01:06.91    \nframe=   44 fps=0.7 q=30.2 size=       0KiB time=00:00:00.70 bitrate=   0.5kbits/s speed=0.0104x elapsed=0:01:07.43    \nframe=   45 fps=0.7 q=34.6 size=       0KiB time=00:00:00.71 bitrate=   0.5kbits/s speed=0.0105x elapsed=0:01:07.94    \nframe=   45 fps=0.7 q=34.6 size=       0KiB time=00:00:00.71 bitrate=   0.5kbits/s speed=0.0105x elapsed=0:01:08.46    \nframe=   46 fps=0.7 q=35.2 size=     256KiB time=00:00:00.73 bitrate=2860.2kbits/s speed=0.0106x elapsed=0:01:08.97    \nframe=   46 fps=0.7 q=35.2 size=     256KiB time=00:00:00.73 bitrate=2860.2kbits/s speed=0.0106x elapsed=0:01:09.50    \nframe=   47 fps=0.7 q=35.2 size=     256KiB time=00:00:00.75 bitrate=2796.7kbits/s speed=0.0107x elapsed=0:01:10.04    \nframe=   47 fps=0.7 q=35.2 size=     256KiB time=00:00:00.75 bitrate=2796.7kbits/s speed=0.0106x elapsed=0:01:10.56    \nframe=   47 fps=0.7 q=35.2 size=     256KiB time=00:00:00.75 bitrate=2796.7kbits/s speed=0.0106x elapsed=0:01:11.08    \nframe=   48 fps=0.7 q=35.4 size=     256KiB time=00:00:00.76 bitrate=2735.9kbits/s speed=0.0107x elapsed=0:01:11.58    \nframe=   48 fps=0.7 q=35.4 size=     256KiB time=00:00:00.76 bitrate=2735.9kbits/s speed=0.0106x elapsed=0:01:12.11    \nframe=   49 fps=0.7 q=30.2 size=     256KiB time=00:00:00.78 bitrate=2677.7kbits/s speed=0.0108x elapsed=0:01:12.67    \nframe=   50 fps=0.7 q=33.3 size=     256KiB time=00:00:00.80 bitrate=2621.9kbits/s speed=0.0109x elapsed=0:01:13.20    \nframe=   50 fps=0.7 q=33.3 size=     256KiB time=00:00:00.80 bitrate=2621.9kbits/s speed=0.0108x elapsed=0:01:13.73    \nframe=   51 fps=0.7 q=35.9 size=     256KiB time=00:00:00.81 bitrate=2568.4kbits/s speed=0.011x elapsed=0:01:14.25    \nframe=   51 fps=0.7 q=35.9 size=     256KiB time=00:00:00.81 bitrate=2568.4kbits/s speed=0.0109x elapsed=0:01:14.80    \nframe=   51 fps=0.7 q=35.9 size=     256KiB time=00:00:00.81 bitrate=2568.4kbits/s speed=0.0108x elapsed=0:01:15.35    \nframe=   52 fps=0.7 q=36.0 size=     256KiB time=00:00:00.83 bitrate=2517.0kbits/s speed=0.011x elapsed=0:01:15.89    \nframe=   52 fps=0.7 q=36.0 size=     256KiB time=00:00:00.83 bitrate=2517.0kbits/s speed=0.0109x elapsed=0:01:16.45    \nframe=   52 fps=0.7 q=36.0 size=     256KiB time=00:00:00.83 bitrate=2517.0kbits/s speed=0.0108x elapsed=0:01:16.99    \nframe=   52 fps=0.7 q=36.0 size=     256KiB time=00:00:00.83 bitrate=2517.0kbits/s speed=0.0107x elapsed=0:01:17.52    \nframe=   52 fps=0.7 q=36.0 size=     256KiB time=00:00:00.83 bitrate=2517.0kbits/s speed=0.0107x elapsed=0:01:18.06    \nframe=   53 fps=0.7 q=30.8 size=     256KiB time=00:00:00.85 bitrate=2467.7kbits/s speed=0.0108x elapsed=0:01:18.61    \nframe=   53 fps=0.7 q=30.8 size=     256KiB time=00:00:00.85 bitrate=2467.7kbits/s speed=0.0107x elapsed=0:01:19.14    \nframe=   54 fps=0.7 q=33.6 size=     256KiB time=00:00:00.86 bitrate=2420.2kbits/s speed=0.0109x elapsed=0:01:19.66    \nframe=   55 fps=0.7 q=36.2 size=     256KiB time=00:00:00.88 bitrate=2374.5kbits/s speed=0.011x elapsed=0:01:20.21    \nframe=   55 fps=0.7 q=36.2 size=     256KiB time=00:00:00.88 bitrate=2374.5kbits/s speed=0.0109x elapsed=0:01:20.80    \nframe=   55 fps=0.7 q=36.2 size=     256KiB time=00:00:00.88 bitrate=2374.5kbits/s speed=0.0109x elapsed=0:01:21.36    \nframe=   55 fps=0.7 q=36.2 size=     256KiB time=00:00:00.88 bitrate=2374.5kbits/s speed=0.0108x elapsed=0:01:21.92    \nframe=   55 fps=0.7 q=36.2 size=     256KiB time=00:00:00.88 bitrate=2374.5kbits/s speed=0.0107x elapsed=0:01:22.42    \nframe=   56 fps=0.7 q=35.5 size=     256KiB time=00:00:00.90 bitrate=2330.6kbits/s speed=0.0108x elapsed=0:01:22.95    \nframe=   56 fps=0.7 q=35.5 size=     256KiB time=00:00:00.90 bitrate=2330.6kbits/s speed=0.0108x elapsed=0:01:23.48    \nframe=   56 fps=0.7 q=35.5 size=     256KiB time=00:00:00.90 bitrate=2330.6kbits/s speed=0.0107x elapsed=0:01:23.99    \nframe=   56 fps=0.7 q=35.5 size=     256KiB time=00:00:00.90 bitrate=2330.6kbits/s speed=0.0106x elapsed=0:01:24.53    \nframe=   56 fps=0.7 q=35.5 size=     256KiB time=00:00:00.90 bitrate=2330.6kbits/s speed=0.0106x elapsed=0:01:25.04    \nframe=   57 fps=0.7 q=30.2 size=     256KiB time=00:00:00.91 bitrate=2288.2kbits/s speed=0.0107x elapsed=0:01:25.60    \nframe=   57 fps=0.7 q=30.2 size=     256KiB time=00:00:00.91 bitrate=2288.2kbits/s speed=0.0106x elapsed=0:01:26.13    \nframe=   57 fps=0.7 q=30.2 size=     256KiB time=00:00:00.91 bitrate=2288.2kbits/s speed=0.0106x elapsed=0:01:26.73    \nframe=   57 fps=0.7 q=30.2 size=     256KiB time=00:00:00.91 bitrate=2288.2kbits/s speed=0.0105x elapsed=0:01:27.27    \nframe=   57 fps=0.6 q=30.2 size=     256KiB time=00:00:00.91 bitrate=2288.2kbits/s speed=0.0104x elapsed=0:01:27.84    \nframe=   57 fps=0.6 q=30.2 size=     256KiB time=00:00:00.91 bitrate=2288.2kbits/s speed=0.0104x elapsed=0:01:28.41    \nframe=   57 fps=0.6 q=30.2 size=     256KiB time=00:00:00.91 bitrate=2288.2kbits/s speed=0.0103x elapsed=0:01:28.94    \nframe=   57 fps=0.6 q=30.2 size=     256KiB time=00:00:00.91 bitrate=2288.2kbits/s speed=0.0102x elapsed=0:01:29.46    \nframe=   58 fps=0.6 q=34.2 size=     256KiB time=00:00:00.93 bitrate=2247.3kbits/s speed=0.0104x elapsed=0:01:29.98    \nframe=   59 fps=0.7 q=36.3 size=     256KiB time=00:00:00.95 bitrate=2207.9kbits/s speed=0.0105x elapsed=0:01:30.52    \nframe=   59 fps=0.6 q=36.3 size=     256KiB time=00:00:00.95 bitrate=2207.9kbits/s speed=0.0104x elapsed=0:01:31.06    \nframe=   59 fps=0.6 q=36.3 size=     256KiB time=00:00:00.95 bitrate=2207.9kbits/s speed=0.0104x elapsed=0:01:31.59    \nframe=   59 fps=0.6 q=36.3 size=     256KiB time=00:00:00.95 bitrate=2207.9kbits/s speed=0.0103x elapsed=0:01:32.13    \nframe=   59 fps=0.6 q=36.3 size=     256KiB time=00:00:00.95 bitrate=2207.9kbits/s speed=0.0103x elapsed=0:01:32.67    \nframe=   60 fps=0.6 q=30.7 size=     256KiB time=00:00:00.96 bitrate=2169.8kbits/s speed=0.0104x elapsed=0:01:33.23    \nframe=   61 fps=0.7 q=34.8 size=     256KiB time=00:00:00.98 bitrate=2133.1kbits/s speed=0.0105x elapsed=0:01:33.78    \nframe=   61 fps=0.6 q=34.8 size=     256KiB time=00:00:00.98 bitrate=2133.1kbits/s speed=0.0104x elapsed=0:01:34.32    \nframe=   61 fps=0.6 q=34.8 size=     256KiB time=00:00:00.98 bitrate=2133.1kbits/s speed=0.0104x elapsed=0:01:34.88    \nframe=   62 fps=0.6 q=36.1 size=     256KiB time=00:00:01.00 bitrate=2097.5kbits/s speed=0.0105x elapsed=0:01:35.40    \nframe=   62 fps=0.6 q=36.1 size=     256KiB time=00:00:01.00 bitrate=2097.5kbits/s speed=0.0104x elapsed=0:01:35.92    \nframe=   62 fps=0.6 q=36.1 size=     256KiB time=00:00:01.00 bitrate=2097.5kbits/s speed=0.0104x elapsed=0:01:36.43    \nframe=   62 fps=0.6 q=36.1 size=     256KiB time=00:00:01.00 bitrate=2097.5kbits/s speed=0.0103x elapsed=0:01:36.97    \nframe=   62 fps=0.6 q=36.1 size=     256KiB time=00:00:01.00 bitrate=2097.5kbits/s speed=0.0103x elapsed=0:01:37.54    \nframe=   63 fps=0.6 q=36.0 size=     256KiB time=00:00:01.01 bitrate=2063.1kbits/s speed=0.0104x elapsed=0:01:38.07    \nframe=   63 fps=0.6 q=36.0 size=     256KiB time=00:00:01.01 bitrate=2063.1kbits/s speed=0.0103x elapsed=0:01:38.61    \nframe=   63 fps=0.6 q=36.0 size=     256KiB time=00:00:01.01 bitrate=2063.1kbits/s speed=0.0102x elapsed=0:01:39.18    \nframe=   63 fps=0.6 q=36.0 size=     256KiB time=00:00:01.01 bitrate=2063.1kbits/s speed=0.0102x elapsed=0:01:39.76    \nframe=   64 fps=0.6 q=36.1 size=     256KiB time=00:00:01.03 bitrate=2029.8kbits/s speed=0.0103x elapsed=0:01:40.28    \nframe=   64 fps=0.6 q=36.1 size=     256KiB time=00:00:01.03 bitrate=2029.8kbits/s speed=0.0102x elapsed=0:01:40.81    \nframe=   64 fps=0.6 q=36.1 size=     256KiB time=00:00:01.03 bitrate=2029.8kbits/s speed=0.0102x elapsed=0:01:41.37    \nframe=   65 fps=0.6 q=31.4 size=     256KiB time=00:00:01.05 bitrate=1997.6kbits/s speed=0.0103x elapsed=0:01:41.88    \nframe=   65 fps=0.6 q=31.4 size=     256KiB time=00:00:01.05 bitrate=1997.6kbits/s speed=0.0103x elapsed=0:01:42.42    \nframe=   65 fps=0.6 q=31.4 size=     256KiB time=00:00:01.05 bitrate=1997.6kbits/s speed=0.0102x elapsed=0:01:42.96    \nframe=   65 fps=0.6 q=31.4 size=     256KiB time=00:00:01.05 bitrate=1997.6kbits/s speed=0.0101x elapsed=0:01:43.52    \nframe=   65 fps=0.6 q=31.4 size=     256KiB time=00:00:01.05 bitrate=1997.6kbits/s speed=0.0101x elapsed=0:01:44.18    \nframe=   66 fps=0.6 q=34.7 size=     256KiB time=00:00:01.06 bitrate=1966.4kbits/s speed=0.0102x elapsed=0:01:44.78    \nframe=   66 fps=0.6 q=34.7 size=     256KiB time=00:00:01.06 bitrate=1966.4kbits/s speed=0.0101x elapsed=0:01:45.41    \nframe=   66 fps=0.6 q=34.7 size=     256KiB time=00:00:01.06 bitrate=1966.4kbits/s speed=0.0101x elapsed=0:01:46.07    \nframe=   66 fps=0.6 q=34.7 size=     256KiB time=00:00:01.06 bitrate=1966.4kbits/s speed=0.01x elapsed=0:01:46.66    \nframe=   66 fps=0.6 q=34.7 size=     256KiB time=00:00:01.06 bitrate=1966.4kbits/s speed=0.00994x elapsed=0:01:47.28    \nframe=   66 fps=0.6 q=34.7 size=     256KiB time=00:00:01.06 bitrate=1966.4kbits/s speed=0.00989x elapsed=0:01:47.84    \nframe=   66 fps=0.6 q=34.7 size=     256KiB time=00:00:01.06 bitrate=1966.4kbits/s speed=0.00984x elapsed=0:01:48.42    \nframe=   66 fps=0.6 q=34.7 size=     256KiB time=00:00:01.06 bitrate=1966.4kbits/s speed=0.00979x elapsed=0:01:48.97    \nframe=   66 fps=0.6 q=34.7 size=     256KiB time=00:00:01.06 bitrate=1966.4kbits/s speed=0.00973x elapsed=0:01:49.57    \nframe=   66 fps=0.6 q=34.7 size=     256KiB time=00:00:01.06 bitrate=1966.4kbits/s speed=0.00968x elapsed=0:01:50.21    \nframe=   66 fps=0.6 q=34.7 size=     256KiB time=00:00:01.06 bitrate=1966.4kbits/s speed=0.00962x elapsed=0:01:50.88    \nframe=   67 fps=0.6 q=35.9 size=     256KiB time=00:00:01.08 bitrate=1936.2kbits/s speed=0.00971x elapsed=0:01:51.53    \nframe=   67 fps=0.6 q=35.9 size=     256KiB time=00:00:01.08 bitrate=1936.2kbits/s speed=0.00966x elapsed=0:01:52.12    \nframe=   67 fps=0.6 q=35.9 size=     256KiB time=00:00:01.08 bitrate=1936.2kbits/s speed=0.00961x elapsed=0:01:52.67    \nframe=   67 fps=0.6 q=35.9 size=     256KiB time=00:00:01.08 bitrate=1936.2kbits/s speed=0.00956x elapsed=0:01:53.27    \nframe=   67 fps=0.6 q=35.9 size=     256KiB time=00:00:01.08 bitrate=1936.2kbits/s speed=0.00952x elapsed=0:01:53.83    \nframe=   67 fps=0.6 q=35.9 size=     256KiB time=00:00:01.08 bitrate=1936.2kbits/s speed=0.00947x elapsed=0:01:54.40    \nframe=   67 fps=0.6 q=35.9 size=     256KiB time=00:00:01.08 bitrate=1936.2kbits/s speed=0.00942x elapsed=0:01:54.95    \nframe=   67 fps=0.6 q=35.9 size=     256KiB time=00:00:01.08 bitrate=1936.2kbits/s speed=0.00938x elapsed=0:01:55.51    \nframe=   68 fps=0.6 q=35.8 size=     256KiB time=00:00:01.10 bitrate=1906.8kbits/s speed=0.00948x elapsed=0:01:56.06    \nframe=   68 fps=0.6 q=35.8 size=     256KiB time=00:00:01.10 bitrate=1906.8kbits/s speed=0.00943x elapsed=0:01:56.61    \nframe=   68 fps=0.6 q=35.8 size=     256KiB time=00:00:01.10 bitrate=1906.8kbits/s speed=0.00939x elapsed=0:01:57.13    \nframe=   68 fps=0.6 q=35.8 size=     256KiB time=00:00:01.10 bitrate=1906.8kbits/s speed=0.00935x elapsed=0:01:57.67    \nframe=   69 fps=0.6 q=35.8 size=     256KiB time=00:00:01.11 bitrate=1878.4kbits/s speed=0.00945x elapsed=0:01:58.20    \nframe=   69 fps=0.6 q=35.8 size=     256KiB time=00:00:01.11 bitrate=1878.4kbits/s speed=0.0094x elapsed=0:01:58.74    \nframe=   69 fps=0.6 q=35.8 size=     256KiB time=00:00:01.11 bitrate=1878.4kbits/s speed=0.00936x elapsed=0:01:59.28    \nframe=   69 fps=0.6 q=35.8 size=     256KiB time=00:00:01.11 bitrate=1878.4kbits/s speed=0.00932x elapsed=0:01:59.81    \nframe=   69 fps=0.6 q=35.8 size=     256KiB time=00:00:01.11 bitrate=1878.4kbits/s speed=0.00928x elapsed=0:02:00.38    \nframe=   69 fps=0.6 q=35.8 size=     256KiB time=00:00:01.11 bitrate=1878.4kbits/s speed=0.00924x elapsed=0:02:00.89    \nframe=   69 fps=0.6 q=35.8 size=     256KiB time=00:00:01.11 bitrate=1878.4kbits/s speed=0.00919x elapsed=0:02:01.44    \nframe=   70 fps=0.6 q=31.1 size=     256KiB time=00:00:01.13 bitrate=1850.7kbits/s speed=0.00929x elapsed=0:02:01.95    \nframe=   70 fps=0.6 q=31.1 size=     256KiB time=00:00:01.13 bitrate=1850.7kbits/s speed=0.00925x elapsed=0:02:02.49    \nframe=   70 fps=0.6 q=31.1 size=     256KiB time=00:00:01.13 bitrate=1850.7kbits/s speed=0.0092x elapsed=0:02:03.12    \nframe=   70 fps=0.6 q=31.1 size=     256KiB time=00:00:01.13 bitrate=1850.7kbits/s speed=0.00916x elapsed=0:02:03.69    \nframe=   70 fps=0.6 q=31.1 size=     256KiB time=00:00:01.13 bitrate=1850.7kbits/s speed=0.00912x elapsed=0:02:04.26    \nframe=   70 fps=0.6 q=31.1 size=     256KiB time=00:00:01.13 bitrate=1850.7kbits/s speed=0.00908x elapsed=0:02:04.83    \nframe=   70 fps=0.6 q=31.1 size=     256KiB time=00:00:01.13 bitrate=1850.7kbits/s speed=0.00904x elapsed=0:02:05.36    \nframe=   70 fps=0.6 q=31.1 size=     256KiB time=00:00:01.13 bitrate=1850.7kbits/s speed=0.009x elapsed=0:02:05.95    \nframe=   70 fps=0.6 q=31.1 size=     256KiB time=00:00:01.13 bitrate=1850.7kbits/s speed=0.00896x elapsed=0:02:06.53    \nframe=   71 fps=0.6 q=36.0 size=     256KiB time=00:00:01.15 bitrate=1823.9kbits/s speed=0.00905x elapsed=0:02:07.09    \nframe=   71 fps=0.6 q=36.0 size=     256KiB time=00:00:01.15 bitrate=1823.9kbits/s speed=0.009x elapsed=0:02:07.73    \nframe=   71 fps=0.6 q=36.0 size=     256KiB time=00:00:01.15 bitrate=1823.9kbits/s speed=0.00897x elapsed=0:02:08.26    \nframe=   71 fps=0.6 q=36.0 size=     256KiB time=00:00:01.15 bitrate=1823.9kbits/s speed=0.00893x elapsed=0:02:08.82    \nframe=   71 fps=0.5 q=36.0 size=     256KiB time=00:00:01.15 bitrate=1823.9kbits/s speed=0.00889x elapsed=0:02:09.40    \nframe=   71 fps=0.5 q=36.0 size=     256KiB time=00:00:01.15 bitrate=1823.9kbits/s speed=0.00885x elapsed=0:02:09.96    \nframe=   72 fps=0.6 q=31.0 size=     256KiB time=00:00:01.16 bitrate=1797.9kbits/s speed=0.00894x elapsed=0:02:10.48    \nframe=   73 fps=0.6 q=33.8 size=     256KiB time=00:00:01.18 bitrate=1772.5kbits/s speed=0.00903x elapsed=0:02:11.04    \nframe=   73 fps=0.6 q=33.8 size=     256KiB time=00:00:01.18 bitrate=1772.5kbits/s speed=0.00899x elapsed=0:02:11.58    \nframe=   73 fps=0.6 q=33.8 size=     256KiB time=00:00:01.18 bitrate=1772.5kbits/s speed=0.00895x elapsed=0:02:12.14    \nframe=   73 fps=0.5 q=33.8 size=     256KiB time=00:00:01.18 bitrate=1772.5kbits/s speed=0.00891x elapsed=0:02:12.74    \nframe=   73 fps=0.5 q=33.8 size=     256KiB time=00:00:01.18 bitrate=1772.5kbits/s speed=0.00888x elapsed=0:02:13.27    \nframe=   73 fps=0.5 q=33.8 size=     256KiB time=00:00:01.18 bitrate=1772.5kbits/s speed=0.00884x elapsed=0:02:13.79    \nframe=   73 fps=0.5 q=33.8 size=     256KiB time=00:00:01.18 bitrate=1772.5kbits/s speed=0.00881x elapsed=0:02:14.30    \nframe=   73 fps=0.5 q=33.8 size=     256KiB time=00:00:01.18 bitrate=1772.5kbits/s speed=0.00878x elapsed=0:02:14.82    \nframe=   74 fps=0.5 q=35.9 size=     256KiB time=00:00:01.20 bitrate=1747.9kbits/s speed=0.00886x elapsed=0:02:15.37    \nframe=   74 fps=0.5 q=35.9 size=     256KiB time=00:00:01.20 bitrate=1747.9kbits/s speed=0.00883x elapsed=0:02:15.95    \nframe=   74 fps=0.5 q=35.9 size=     256KiB time=00:00:01.20 bitrate=1747.9kbits/s speed=0.00879x elapsed=0:02:16.50    \nframe=   74 fps=0.5 q=35.9 size=     256KiB time=00:00:01.20 bitrate=1747.9kbits/s speed=0.00875x elapsed=0:02:17.07    \nframe=   75 fps=0.5 q=36.0 size=     256KiB time=00:00:01.21 bitrate=1724.0kbits/s speed=0.00883x elapsed=0:02:17.75    \nframe=   76 fps=0.5 q=31.3 size=     256KiB time=00:00:01.23 bitrate=1700.7kbits/s speed=0.00892x elapsed=0:02:18.34    \nframe=   76 fps=0.5 q=31.3 size=     256KiB time=00:00:01.23 bitrate=1700.7kbits/s speed=0.00888x elapsed=0:02:18.90    \nframe=   77 fps=0.6 q=33.9 size=     256KiB time=00:00:01.25 bitrate=1678.0kbits/s speed=0.00896x elapsed=0:02:19.49    \nframe=   77 fps=0.5 q=33.9 size=     256KiB time=00:00:01.25 bitrate=1678.0kbits/s speed=0.00892x elapsed=0:02:20.09    \nframe=   77 fps=0.5 q=33.9 size=     256KiB time=00:00:01.25 bitrate=1678.0kbits/s speed=0.00888x elapsed=0:02:20.76    \nframe=   77 fps=0.5 q=33.9 size=     256KiB time=00:00:01.25 bitrate=1678.0kbits/s speed=0.00885x elapsed=0:02:21.31    \nframe=   78 fps=0.5 q=35.9 size=     256KiB time=00:00:01.26 bitrate=1655.9kbits/s speed=0.00892x elapsed=0:02:21.94    \nframe=   78 fps=0.5 q=35.9 size=     256KiB time=00:00:01.26 bitrate=1655.9kbits/s speed=0.00889x elapsed=0:02:22.55    \nframe=   78 fps=0.5 q=35.9 size=     256KiB time=00:00:01.26 bitrate=1655.9kbits/s speed=0.00885x elapsed=0:02:23.18    \nframe=   78 fps=0.5 q=35.9 size=     256KiB time=00:00:01.26 bitrate=1655.9kbits/s speed=0.00881x elapsed=0:02:23.77    \nframe=   78 fps=0.5 q=35.9 size=     256KiB time=00:00:01.26 bitrate=1655.9kbits/s speed=0.00878x elapsed=0:02:24.34    \nframe=   78 fps=0.5 q=35.9 size=     256KiB time=00:00:01.26 bitrate=1655.9kbits/s speed=0.00874x elapsed=0:02:24.90    \nframe=   78 fps=0.5 q=35.9 size=     256KiB time=00:00:01.26 bitrate=1655.9kbits/s speed=0.00871x elapsed=0:02:25.43    \nframe=   78 fps=0.5 q=35.9 size=     256KiB time=00:00:01.26 bitrate=1655.9kbits/s speed=0.00868x elapsed=0:02:25.95    \nframe=   78 fps=0.5 q=35.9 size=     256KiB time=00:00:01.26 bitrate=1655.9kbits/s speed=0.00865x elapsed=0:02:26.47    \nframe=   80 fps=0.5 q=30.9 size=     256KiB time=00:00:01.30 bitrate=1613.5kbits/s speed=0.00884x elapsed=0:02:27.01    \nframe=   80 fps=0.5 q=30.9 size=     256KiB time=00:00:01.30 bitrate=1613.5kbits/s speed=0.00881x elapsed=0:02:27.62    \nframe=   80 fps=0.5 q=30.9 size=     256KiB time=00:00:01.30 bitrate=1613.5kbits/s speed=0.00877x elapsed=0:02:28.23    \nframe=   80 fps=0.5 q=30.9 size=     256KiB time=00:00:01.30 bitrate=1613.5kbits/s speed=0.00874x elapsed=0:02:28.80    \nframe=   80 fps=0.5 q=30.9 size=     256KiB time=00:00:01.30 bitrate=1613.5kbits/s speed=0.0087x elapsed=0:02:29.47    \nframe=   80 fps=0.5 q=30.9 size=     256KiB time=00:00:01.30 bitrate=1613.5kbits/s speed=0.00867x elapsed=0:02:30.00    \nframe=   80 fps=0.5 q=30.9 size=     256KiB time=00:00:01.30 bitrate=1613.5kbits/s speed=0.00864x elapsed=0:02:30.52    \nframe=   81 fps=0.5 q=35.0 size=     256KiB time=00:00:01.31 bitrate=1593.0kbits/s speed=0.00872x elapsed=0:02:31.04    \nframe=   82 fps=0.5 q=36.0 size=     256KiB time=00:00:01.33 bitrate=1573.1kbits/s speed=0.0088x elapsed=0:02:31.56    \nframe=   82 fps=0.5 q=36.0 size=     256KiB time=00:00:01.33 bitrate=1573.1kbits/s speed=0.00876x elapsed=0:02:32.12    \nframe=   82 fps=0.5 q=36.0 size=     256KiB time=00:00:01.33 bitrate=1573.1kbits/s speed=0.00873x elapsed=0:02:32.66    \nframe=   82 fps=0.5 q=36.0 size=     256KiB time=00:00:01.33 bitrate=1573.1kbits/s speed=0.0087x elapsed=0:02:33.25    \nframe=   82 fps=0.5 q=36.0 size=     256KiB time=00:00:01.33 bitrate=1573.1kbits/s speed=0.00867x elapsed=0:02:33.80    \nframe=   83 fps=0.5 q=36.2 size=     256KiB time=00:00:01.35 bitrate=1553.7kbits/s speed=0.00875x elapsed=0:02:34.36    \nframe=   83 fps=0.5 q=36.2 size=     256KiB time=00:00:01.35 bitrate=1553.7kbits/s speed=0.00871x elapsed=0:02:34.95    \nframe=   83 fps=0.5 q=36.2 size=     256KiB time=00:00:01.35 bitrate=1553.7kbits/s speed=0.00868x elapsed=0:02:35.53    \nframe=   83 fps=0.5 q=36.2 size=     256KiB time=00:00:01.35 bitrate=1553.7kbits/s speed=0.00865x elapsed=0:02:36.15    \nframe=   83 fps=0.5 q=36.2 size=     256KiB time=00:00:01.35 bitrate=1553.7kbits/s speed=0.00861x elapsed=0:02:36.71    \nframe=   84 fps=0.5 q=36.5 size=     256KiB time=00:00:01.36 bitrate=1534.8kbits/s speed=0.00869x elapsed=0:02:37.27    \nframe=   84 fps=0.5 q=36.5 size=     256KiB time=00:00:01.36 bitrate=1534.8kbits/s speed=0.00866x elapsed=0:02:37.85    \nframe=   84 fps=0.5 q=36.5 size=     256KiB time=00:00:01.36 bitrate=1534.8kbits/s speed=0.00863x elapsed=0:02:38.37    \nframe=   85 fps=0.5 q=30.9 size=     256KiB time=00:00:01.38 bitrate=1516.3kbits/s speed=0.0087x elapsed=0:02:38.92    \nframe=   85 fps=0.5 q=30.9 size=     256KiB time=00:00:01.38 bitrate=1516.3kbits/s speed=0.00868x elapsed=0:02:39.45    \nframe=   85 fps=0.5 q=30.9 size=     256KiB time=00:00:01.38 bitrate=1516.3kbits/s speed=0.00865x elapsed=0:02:39.99    \nframe=   85 fps=0.5 q=30.9 size=     256KiB time=00:00:01.38 bitrate=1516.3kbits/s speed=0.00862x elapsed=0:02:40.51    \nframe=   85 fps=0.5 q=30.9 size=     256KiB time=00:00:01.38 bitrate=1516.3kbits/s speed=0.00859x elapsed=0:02:41.11    \nframe=   86 fps=0.5 q=33.9 size=     512KiB time=00:00:01.40 bitrate=2996.2kbits/s speed=0.00866x elapsed=0:02:41.73    \nframe=   86 fps=0.5 q=33.9 size=     512KiB time=00:00:01.40 bitrate=2996.2kbits/s speed=0.00862x elapsed=0:02:42.36    \nframe=   87 fps=0.5 q=36.4 size=     512KiB time=00:00:01.41 bitrate=2960.9kbits/s speed=0.0087x elapsed=0:02:42.89    \nframe=   88 fps=0.5 q=36.9 size=     512KiB time=00:00:01.43 bitrate=2926.5kbits/s speed=0.00877x elapsed=0:02:43.43    \nframe=   88 fps=0.5 q=36.9 size=     512KiB time=00:00:01.43 bitrate=2926.5kbits/s speed=0.00874x elapsed=0:02:43.99    \nframe=   88 fps=0.5 q=36.9 size=     512KiB time=00:00:01.43 bitrate=2926.5kbits/s speed=0.00871x elapsed=0:02:44.59    \nframe=   89 fps=0.5 q=31.7 size=     512KiB time=00:00:01.45 bitrate=2892.9kbits/s speed=0.00878x elapsed=0:02:45.12    \nframe=   89 fps=0.5 q=31.7 size=     512KiB time=00:00:01.45 bitrate=2892.9kbits/s speed=0.00875x elapsed=0:02:45.66    \nframe=   89 fps=0.5 q=31.7 size=     512KiB time=00:00:01.45 bitrate=2892.9kbits/s speed=0.00872x elapsed=0:02:46.24    \nframe=   90 fps=0.5 q=34.6 size=     512KiB time=00:00:01.46 bitrate=2860.0kbits/s speed=0.00879x elapsed=0:02:46.79    \nframe=   90 fps=0.5 q=34.6 size=     512KiB time=00:00:01.46 bitrate=2860.0kbits/s speed=0.00876x elapsed=0:02:47.33    \nframe=   90 fps=0.5 q=34.6 size=     512KiB time=00:00:01.46 bitrate=2860.0kbits/s speed=0.00873x elapsed=0:02:47.91    \nframe=   90 fps=0.5 q=34.6 size=     512KiB time=00:00:01.46 bitrate=2860.0kbits/s speed=0.00871x elapsed=0:02:48.47    \nframe=   91 fps=0.5 q=37.0 size=     512KiB time=00:00:01.48 bitrate=2827.9kbits/s speed=0.00877x elapsed=0:02:49.04    \nframe=   91 fps=0.5 q=37.0 size=     512KiB time=00:00:01.48 bitrate=2827.9kbits/s speed=0.00875x elapsed=0:02:49.59    \nframe=   91 fps=0.5 q=37.0 size=     512KiB time=00:00:01.48 bitrate=2827.9kbits/s speed=0.00872x elapsed=0:02:50.13    \nframe=   91 fps=0.5 q=37.0 size=     512KiB time=00:00:01.48 bitrate=2827.9kbits/s speed=0.00869x elapsed=0:02:50.70    \nframe=   92 fps=0.5 q=37.1 size=     512KiB time=00:00:01.50 bitrate=2796.4kbits/s speed=0.00875x elapsed=0:02:51.34    \nframe=   92 fps=0.5 q=37.1 size=     512KiB time=00:00:01.50 bitrate=2796.4kbits/s speed=0.00872x elapsed=0:02:51.97    \nframe=   92 fps=0.5 q=37.1 size=     512KiB time=00:00:01.50 bitrate=2796.4kbits/s speed=0.0087x elapsed=0:02:52.50    \nframe=   92 fps=0.5 q=37.1 size=     512KiB time=00:00:01.50 bitrate=2796.4kbits/s speed=0.00866x elapsed=0:02:53.11    \nframe=   92 fps=0.5 q=37.1 size=     512KiB time=00:00:01.50 bitrate=2796.4kbits/s speed=0.00864x elapsed=0:02:53.70    \nframe=   92 fps=0.5 q=37.1 size=     512KiB time=00:00:01.50 bitrate=2796.4kbits/s speed=0.00861x elapsed=0:02:54.26    \nframe=   92 fps=0.5 q=37.1 size=     512KiB time=00:00:01.50 bitrate=2796.4kbits/s speed=0.00858x elapsed=0:02:54.87    \nframe=   92 fps=0.5 q=37.1 size=     512KiB time=00:00:01.50 bitrate=2796.4kbits/s speed=0.00855x elapsed=0:02:55.45    \nframe=   92 fps=0.5 q=37.1 size=     512KiB time=00:00:01.50 bitrate=2796.4kbits/s speed=0.00852x elapsed=0:02:56.12    \nframe=   92 fps=0.5 q=37.1 size=     512KiB time=00:00:01.50 bitrate=2796.4kbits/s speed=0.00849x elapsed=0:02:56.69    \nframe=   93 fps=0.5 q=32.0 size=     512KiB time=00:00:01.51 bitrate=2765.7kbits/s speed=0.00856x elapsed=0:02:57.27    \nframe=   93 fps=0.5 q=32.0 size=     512KiB time=00:00:01.51 bitrate=2765.7kbits/s speed=0.00853x elapsed=0:02:57.85    \nframe=   94 fps=0.5 q=34.9 size=     512KiB time=00:00:01.53 bitrate=2735.6kbits/s speed=0.00859x elapsed=0:02:58.43    \nframe=   94 fps=0.5 q=34.9 size=     512KiB time=00:00:01.53 bitrate=2735.6kbits/s speed=0.00857x elapsed=0:02:58.98    \nframe=   94 fps=0.5 q=34.9 size=     512KiB time=00:00:01.53 bitrate=2735.6kbits/s speed=0.00854x elapsed=0:02:59.57    \nframe=   95 fps=0.5 q=37.1 size=     512KiB time=00:00:01.55 bitrate=2706.2kbits/s speed=0.0086x elapsed=0:03:00.13    \nframe=   95 fps=0.5 q=37.1 size=     512KiB time=00:00:01.55 bitrate=2706.2kbits/s speed=0.00857x elapsed=0:03:00.78    \nframe=   95 fps=0.5 q=37.1 size=     512KiB time=00:00:01.55 bitrate=2706.2kbits/s speed=0.00855x elapsed=0:03:01.29    \nframe=   96 fps=0.5 q=32.3 size=     512KiB time=00:00:01.56 bitrate=2677.4kbits/s speed=0.00862x elapsed=0:03:01.81    \nframe=   96 fps=0.5 q=32.3 size=     512KiB time=00:00:01.56 bitrate=2677.4kbits/s speed=0.00859x elapsed=0:03:02.35    \nframe=   97 fps=0.5 q=35.8 size=     512KiB time=00:00:01.58 bitrate=2649.3kbits/s speed=0.00866x elapsed=0:03:02.93    \nframe=   97 fps=0.5 q=35.8 size=     512KiB time=00:00:01.58 bitrate=2649.3kbits/s speed=0.00863x elapsed=0:03:03.47    \nframe=   98 fps=0.5 q=37.2 size=     512KiB time=00:00:01.60 bitrate=2621.7kbits/s speed=0.00869x elapsed=0:03:04.06    \nframe=   98 fps=0.5 q=37.2 size=     512KiB time=00:00:01.60 bitrate=2621.7kbits/s speed=0.00866x elapsed=0:03:04.65    \nframe=   98 fps=0.5 q=37.2 size=     512KiB time=00:00:01.60 bitrate=2621.7kbits/s speed=0.00864x elapsed=0:03:05.25    \nframe=   98 fps=0.5 q=37.2 size=     512KiB time=00:00:01.60 bitrate=2621.7kbits/s speed=0.00861x elapsed=0:03:05.84    \nframe=   98 fps=0.5 q=37.2 size=     512KiB time=00:00:01.60 bitrate=2621.7kbits/s speed=0.00858x elapsed=0:03:06.43    \nframe=   98 fps=0.5 q=37.2 size=     512KiB time=00:00:01.60 bitrate=2621.7kbits/s speed=0.00856x elapsed=0:03:06.98    \nframe=   98 fps=0.5 q=37.2 size=     512KiB time=00:00:01.60 bitrate=2621.7kbits/s speed=0.00853x elapsed=0:03:07.54    \nframe=   98 fps=0.5 q=37.2 size=     512KiB time=00:00:01.60 bitrate=2621.7kbits/s speed=0.0085x elapsed=0:03:08.14    \nframe=   99 fps=0.5 q=37.3 size=     512KiB time=00:00:01.61 bitrate=2594.6kbits/s speed=0.00857x elapsed=0:03:08.67    \nframe=   99 fps=0.5 q=37.3 size=     512KiB time=00:00:01.61 bitrate=2594.6kbits/s speed=0.00855x elapsed=0:03:09.19    \nframe=   99 fps=0.5 q=37.3 size=     512KiB time=00:00:01.61 bitrate=2594.6kbits/s speed=0.00852x elapsed=0:03:09.71    \nframe=   99 fps=0.5 q=37.3 size=     512KiB time=00:00:01.61 bitrate=2594.6kbits/s speed=0.0085x elapsed=0:03:10.23    \nframe=   99 fps=0.5 q=37.3 size=     512KiB time=00:00:01.61 bitrate=2594.6kbits/s speed=0.00847x elapsed=0:03:10.86    \nframe=  100 fps=0.5 q=37.4 size=     512KiB time=00:00:01.63 bitrate=2568.2kbits/s speed=0.00853x elapsed=0:03:11.49    \nframe=  100 fps=0.5 q=37.4 size=     512KiB time=00:00:01.63 bitrate=2568.2kbits/s speed=0.0085x elapsed=0:03:12.13    \nframe=  100 fps=0.5 q=37.4 size=     512KiB time=00:00:01.63 bitrate=2568.2kbits/s speed=0.00848x elapsed=0:03:12.70    \nframe=  100 fps=0.5 q=37.4 size=     512KiB time=00:00:01.63 bitrate=2568.2kbits/s speed=0.00845x elapsed=0:03:13.23    \nframe=  101 fps=0.5 q=32.1 size=     512KiB time=00:00:01.65 bitrate=2542.2kbits/s speed=0.00851x elapsed=0:03:13.84    \nframe=  101 fps=0.5 q=32.1 size=     512KiB time=00:00:01.65 bitrate=2542.2kbits/s speed=0.00849x elapsed=0:03:14.43    \nframe=  102 fps=0.5 q=34.8 size=     512KiB time=00:00:01.66 bitrate=2516.8kbits/s speed=0.00855x elapsed=0:03:15.02    \nframe=  102 fps=0.5 q=34.8 size=     512KiB time=00:00:01.66 bitrate=2516.8kbits/s speed=0.00852x elapsed=0:03:15.56    \nframe=  103 fps=0.5 q=37.8 size=     512KiB time=00:00:01.68 bitrate=2491.9kbits/s speed=0.00858x elapsed=0:03:16.14    \nframe=  103 fps=0.5 q=37.8 size=     512KiB time=00:00:01.68 bitrate=2491.9kbits/s speed=0.00855x elapsed=0:03:16.77    \nframe=  103 fps=0.5 q=37.8 size=     512KiB time=00:00:01.68 bitrate=2491.9kbits/s speed=0.00853x elapsed=0:03:17.35    \nframe=  104 fps=0.5 q=32.4 size=     512KiB time=00:00:01.70 bitrate=2467.4kbits/s speed=0.00858x elapsed=0:03:18.02    \nframe=  104 fps=0.5 q=32.4 size=     512KiB time=00:00:01.70 bitrate=2467.4kbits/s speed=0.00856x elapsed=0:03:18.57    \nframe=  104 fps=0.5 q=32.4 size=     512KiB time=00:00:01.70 bitrate=2467.4kbits/s speed=0.00853x elapsed=0:03:19.22    \nframe=  104 fps=0.5 q=32.4 size=     512KiB time=00:00:01.70 bitrate=2467.4kbits/s speed=0.00851x elapsed=0:03:19.82    \nframe=  105 fps=0.5 q=34.2 size=     512KiB time=00:00:01.71 bitrate=2443.5kbits/s speed=0.00857x elapsed=0:03:20.40    \nframe=  105 fps=0.5 q=34.2 size=     512KiB time=00:00:01.71 bitrate=2443.5kbits/s speed=0.00854x elapsed=0:03:20.94    \nframe=  105 fps=0.5 q=34.2 size=     512KiB time=00:00:01.71 bitrate=2443.5kbits/s speed=0.00852x elapsed=0:03:21.52    \nframe=  105 fps=0.5 q=34.2 size=     512KiB time=00:00:01.71 bitrate=2443.5kbits/s speed=0.00849x elapsed=0:03:22.09    \nframe=  105 fps=0.5 q=34.2 size=     512KiB time=00:00:01.71 bitrate=2443.5kbits/s speed=0.00847x elapsed=0:03:22.70    \nframe=  105 fps=0.5 q=34.2 size=     512KiB time=00:00:01.71 bitrate=2443.5kbits/s speed=0.00845x elapsed=0:03:23.23    \nframe=  106 fps=0.5 q=38.2 size=     512KiB time=00:00:01.73 bitrate=2420.0kbits/s speed=0.00851x elapsed=0:03:23.77    \nframe=  106 fps=0.5 q=38.2 size=     512KiB time=00:00:01.73 bitrate=2420.0kbits/s speed=0.00848x elapsed=0:03:24.35    \nframe=  106 fps=0.5 q=38.2 size=     512KiB time=00:00:01.73 bitrate=2420.0kbits/s speed=0.00846x elapsed=0:03:24.91    \nframe=  106 fps=0.5 q=38.2 size=     512KiB time=00:00:01.73 bitrate=2420.0kbits/s speed=0.00844x elapsed=0:03:25.49    \nframe=  107 fps=0.5 q=32.4 size=     512KiB time=00:00:01.75 bitrate=2396.9kbits/s speed=0.00849x elapsed=0:03:26.09    \nframe=  108 fps=0.5 q=35.4 size=     512KiB time=00:00:01.76 bitrate=2374.3kbits/s speed=0.00855x elapsed=0:03:26.68    \nframe=  109 fps=0.5 q=37.9 size=     512KiB time=00:00:01.78 bitrate=2352.1kbits/s speed=0.00861x elapsed=0:03:27.22    \nframe=  109 fps=0.5 q=37.9 size=     512KiB time=00:00:01.78 bitrate=2352.1kbits/s speed=0.00858x elapsed=0:03:27.77    \nframe=  109 fps=0.5 q=37.9 size=     512KiB time=00:00:01.78 bitrate=2352.1kbits/s speed=0.00856x elapsed=0:03:28.39    \nframe=  109 fps=0.5 q=37.9 size=     512KiB time=00:00:01.78 bitrate=2352.1kbits/s speed=0.00853x elapsed=0:03:28.99    \nframe=  109 fps=0.5 q=37.9 size=     512KiB time=00:00:01.78 bitrate=2352.1kbits/s speed=0.00851x elapsed=0:03:29.53    \nframe=  109 fps=0.5 q=37.9 size=     512KiB time=00:00:01.78 bitrate=2352.1kbits/s speed=0.00849x elapsed=0:03:30.05    \nframe=  110 fps=0.5 q=38.0 size=     512KiB time=00:00:01.80 bitrate=2330.4kbits/s speed=0.00854x elapsed=0:03:30.65    \nframe=  110 fps=0.5 q=38.0 size=     512KiB time=00:00:01.80 bitrate=2330.4kbits/s speed=0.00852x elapsed=0:03:31.22    \nframe=  110 fps=0.5 q=38.0 size=     512KiB time=00:00:01.80 bitrate=2330.4kbits/s speed=0.0085x elapsed=0:03:31.85    \nframe=  110 fps=0.5 q=38.0 size=     512KiB time=00:00:01.80 bitrate=2330.4kbits/s speed=0.00847x elapsed=0:03:32.39    \nframe=  111 fps=0.5 q=38.1 size=     512KiB time=00:00:01.81 bitrate=2309.0kbits/s speed=0.00853x elapsed=0:03:33.02    \nframe=  111 fps=0.5 q=38.1 size=     512KiB time=00:00:01.81 bitrate=2309.0kbits/s speed=0.0085x elapsed=0:03:33.64    \nframe=  112 fps=0.5 q=32.2 size=     512KiB time=00:00:01.83 bitrate=2288.0kbits/s speed=0.00856x elapsed=0:03:34.17    \nframe=  112 fps=0.5 q=32.2 size=     512KiB time=00:00:01.83 bitrate=2288.0kbits/s speed=0.00854x elapsed=0:03:34.80    \nframe=  112 fps=0.5 q=32.2 size=     512KiB time=00:00:01.83 bitrate=2288.0kbits/s speed=0.00851x elapsed=0:03:35.39    \nframe=  112 fps=0.5 q=32.2 size=     512KiB time=00:00:01.83 bitrate=2288.0kbits/s speed=0.00849x elapsed=0:03:35.91    \nframe=  113 fps=0.5 q=35.7 size=     512KiB time=00:00:01.85 bitrate=2267.4kbits/s speed=0.00855x elapsed=0:03:36.46    \nframe=  113 fps=0.5 q=35.7 size=     512KiB time=00:00:01.85 bitrate=2267.4kbits/s speed=0.00852x elapsed=0:03:37.02    \nframe=  113 fps=0.5 q=35.7 size=     512KiB time=00:00:01.85 bitrate=2267.4kbits/s speed=0.0085x elapsed=0:03:37.57    \nframe=  113 fps=0.5 q=35.7 size=     512KiB time=00:00:01.85 bitrate=2267.4kbits/s speed=0.00848x elapsed=0:03:38.15    \nframe=  113 fps=0.5 q=35.7 size=     512KiB time=00:00:01.85 bitrate=2267.4kbits/s speed=0.00846x elapsed=0:03:38.70    \nframe=  114 fps=0.5 q=38.1 size=     512KiB time=00:00:01.86 bitrate=2247.1kbits/s speed=0.00851x elapsed=0:03:39.27    \nframe=  114 fps=0.5 q=38.1 size=     512KiB time=00:00:01.86 bitrate=2247.1kbits/s speed=0.00849x elapsed=0:03:39.88    \nframe=  114 fps=0.5 q=38.1 size=     512KiB time=00:00:01.86 bitrate=2247.1kbits/s speed=0.00847x elapsed=0:03:40.44    \nframe=  115 fps=0.5 q=38.2 size=     512KiB time=00:00:01.86 bitrate=2247.1kbits/s speed=0.00845x elapsed=0:03:41.02    \nframe=  115 fps=0.5 q=38.2 size=     512KiB time=00:00:01.88 bitrate=2227.3kbits/s speed=0.0085x elapsed=0:03:41.59    \nframe=  115 fps=0.5 q=38.2 size=     512KiB time=00:00:01.88 bitrate=2227.3kbits/s speed=0.00848x elapsed=0:03:42.20    \nframe=  115 fps=0.5 q=38.2 size=     512KiB time=00:00:01.88 bitrate=2227.3kbits/s speed=0.00845x elapsed=0:03:42.81    \nframe=  116 fps=0.5 q=32.3 size=     512KiB time=00:00:01.90 bitrate=2207.7kbits/s speed=0.0085x elapsed=0:03:43.40    \nReceived > 3 system signals, hard exiting\n",
  "seconds": 224.31298065185547
}